Coordinates
version=1
nRows=24
nColumns=24
inDegrees=yes

Units are S.I. units (second, meters, Newtons, ...)
Angles are in degrees.

endheader
time	pelvis_tilt	pelvis_list	pelvis_rotation	pelvis_tx	pelvis_ty	pelvis_tz	hip_flexion_r	hip_adduction_r	hip_rotation_r	knee_angle_r	ankle_angle_r	subtalar_angle_r	mtp_angle_r	hip_flexion_l	hip_adduction_l	hip_rotation_l	knee_angle_l	ankle_angle_l	subtalar_angle_l	mtp_angle_l	lumbar_extension	lumbar_bending	lumbar_rotation
      1.16000000	     23.61669656	     -6.48549111	      0.06793307	     -0.51639881	      0.88367547	      0.01128914	    -46.98286329	      7.82965621	     18.33100054	      4.56371221	     10.79260997	      4.53798952	     32.14459919	     -0.51435780	     -4.03202367	     15.33794234	     -4.97982957	     -4.58715144	    -39.18123289	     37.81380639	    -29.35941260	      5.69728554	      7.79975127
      1.16500000	     23.50427023	     -6.24273176	      0.18235404	     -0.50930776	      0.88312193	      0.01086662	    -47.11514128	      7.74337708	     17.44234014	      4.10089426	     10.87545457	      5.74502161	     32.38977650	     -0.52120523	     -3.58144277	     15.64796110	     -5.49556609	     -4.85954928	    -39.04379145	     37.84731134	    -29.07356229	      5.47764880	      7.55576581
      1.17000000	     23.41244902	     -5.99343230	      0.30792312	     -0.50222176	      0.88265286	      0.01041637	    -47.25606658	      7.65438014	     16.58062012	      3.62689527	     10.87193271	      6.86462718	     32.65317536	     -0.55686150	     -3.11951826	     15.99924746	     -6.03601825	     -5.19541162	    -38.96167460	     37.87520644	    -28.81358448	      5.25319267	      7.29061859
      1.17500000	     23.31103007	     -5.72680388	      0.39337362	     -0.49507361	      0.88226076	      0.01004820	    -47.35820551	      7.52865594	     15.71245835	      3.09809104	     10.85258819	      8.03137985	     32.98707941	     -0.63249023	     -2.64943198	     16.33589205	     -6.50998272	     -5.68419206	    -38.93859536	     37.88442045	    -28.54091693	      4.98636839	      7.06816830
      1.18000000	     23.20658172	     -5.46056218	      0.47112938	     -0.48792593	      0.88194989	      0.00970656	    -47.43404995	      7.39869852	     14.88356011	      2.53864332	     10.75846910	      9.11525815	     33.36550831	     -0.72476450	     -2.18463101	     16.71383017	     -6.95969810	     -6.26283082	    -38.99378736	     37.87290064	    -28.26772270	      4.71142187	      6.85077617
      1.18500000	     23.10065117	     -5.19293053	      0.52921034	     -0.48076623	      0.88174146	      0.00939321	    -47.46661622	      7.25427886	     14.05627857	      1.90733396	     10.62168903	     10.24582107	     33.85519385	     -0.85290632	     -1.72763268	     17.11609668	     -7.34515177	     -6.97949161	    -39.16429152	     37.83514465	    -27.99608250	      4.42572596	      6.66458332
      1.19000000	     22.98575065	     -4.92174699	      0.56186739	     -0.47361353	      0.88161657	      0.00913700	    -47.46627810	      7.08631746	     13.28862417	      1.25029999	     10.45216538	     11.35668707	     34.57625773	     -1.01014562	     -1.27804749	     17.56615872	     -7.65278963	     -7.89326300	    -39.50471257	     37.76744588	    -27.71966179	      4.11953740	      6.51398943
      1.19500000	     22.90752481	     -4.64352538	      0.61452768	     -0.46648533	      0.88162483	      0.00885021	    -47.46993722	      6.92623499	     12.48473643	      0.54348568	     10.13697147	     12.37922443	     35.33569521	     -1.20942879	     -0.82339587	     18.04714307	     -7.96504260	     -8.74922839	    -39.86706492	     37.69112494	    -27.48707321	      3.81476236	      6.33502276
      1.20000000	     22.78957331	     -4.32852135	      0.62478280	     -0.45927917	      0.88169130	      0.00866587	    -47.43122905	      6.70759624	     11.75919323	     -0.14290489	      9.71203935	     13.10687514	     36.93184958	     -1.43130500	     -0.34237435	     18.60319532	     -8.15733187	     -9.88819374	    -40.66554394	     37.56027939	    -27.20566965	      3.44521364	      6.17673557
      1.20500000	     22.75349777	     -4.08084294	      0.66289263	     -0.45223474	      0.88196565	      0.00846685	    -47.39387008	      6.55783564	     10.99626944	     -0.97412497	      9.24923745	     14.20116896	     37.68494768	     -1.68826815	      0.05453875	     19.04497446	     -8.46741457	    -10.62641447	    -40.75033535	     37.50154909	    -27.03462545	      3.15450247	      6.03677796
      1.21000000	     22.69556270	     -3.80505660	      0.67357579	     -0.44513119	      0.88231602	      0.00833130	    -47.30070108	      6.36468576	     10.21243470	     -1.85557090	      8.73531652	     15.25890647	     38.67339550	     -1.96858980	      0.47356701	     19.53325738	     -8.70016421	    -11.53662490	    -41.21474796	     37.33002832	    -26.83593542	      2.81946268	      5.90939943
      1.21500000	     22.65520884	     -3.52868652	      0.68036190	     -0.43803163	      0.88277942	      0.00821580	    -47.19133115	      6.16195476	      9.43026726	     -2.78351609	      8.11119780	     16.28442210	     39.77636888	     -2.28990279	      0.88303257	     20.02839201	     -8.90405557	    -12.40099991	    -41.71035893	     37.11510874	    -26.65725297	      2.48137181	      5.79345582
      1.22000000	     22.58450048	     -3.24726744	      0.69532647	     -0.43090287	      0.88329420	      0.00811193	    -47.05206790	      5.95892358	      8.74433183	     -3.66538513	      7.21505969	     16.81770432	     42.53806783	     -2.62342234	      1.29185862	     20.66280487	     -9.02496434	    -13.50821771	    -42.78658164	     36.56678442	    -26.44434607	      2.13779151	      5.66012326
      1.22500000	     22.61113271	     -3.00841494	      0.65162636	     -0.42386462	      0.88404788	      0.00816331	    -46.89579521	      5.73727256	      7.94271546	     -4.78502417	      6.47991033	     18.09002623	     43.22327242	     -3.03308501	      1.62574375	     20.96410549	     -9.23725947	    -13.87263312	    -42.67365930	     36.45481970	    -26.35040890	      1.80797831	      5.63179168
      1.23000000	     22.60624131	     -2.76242183	      0.62306700	     -0.41681034	      0.88482632	      0.00817376	    -46.66476644	      5.50681802	      7.09219543	     -5.96378528	      5.64804518	     19.34178689	     44.15204579	     -3.43099381	      1.96679773	     21.35509096	     -9.41133169	    -14.39390330	    -42.98091755	     36.17553366	    -26.22099033	      1.48124036	      5.58329543
      1.23500000	     22.54484840	     -2.51657446	      0.56715166	     -0.40968831	      0.88564281	      0.00826731	    -46.33456467	      5.24748243	      6.25809435	     -7.19413669	      4.68088549	     20.54635743	     45.57463713	     -3.82500218	      2.28653259	     21.77306613	     -9.47641555	    -14.99213589	    -43.44281501	     35.69172603	    -26.02205829	      1.13923455	      5.55512525
      1.24000000	     22.56325394	     -2.33317963	      0.58101063	     -0.40274262	      0.88658001	      0.00821992	    -46.05020007	      5.07061207	      5.43622552	     -8.43839354	      3.38629521	     21.40377953	     48.70681125	     -4.27147779	      2.55081741	     22.28834811	     -9.62343795	    -15.45391226	    -44.17304915	     34.53456055	    -25.93109624	      0.89942467	      5.49586326
      1.24500000	     22.67429829	     -2.12621161	      0.46286655	     -0.39577225	      0.88774608	      0.00847231	    -45.78982104	      4.76226254	      4.58506855	     -9.83914061	      2.23494629	     22.75989562	     49.15649477	     -4.87697139	      2.79136477	     22.44403914	     -9.65958651	    -15.45578858	    -44.01992654	     34.39854340	    -25.93894825	      0.56978497	      5.55596292
      1.25000000	     22.70140109	     -1.94302613	      0.39438396	     -0.38888931	      0.88883033	      0.00858564	    -45.34008416	      4.47873285	      3.59763066	    -11.41409546	      1.06997232	     24.21430496	     49.84256387	     -5.34175825	      3.02568466	     22.66667266	     -9.79831174	    -15.55452197	    -44.09678708	     34.10882924	    -25.86454895	      0.29618795	      5.60322883
      1.25500000	     22.70258286	     -1.75545551	      0.28581911	     -0.38197151	      0.88994459	      0.00876954	    -44.82248385	      4.13944168	      2.61418651	    -13.04282108	     -0.24414460	     25.60268492	     50.75067623	     -5.84024403	      3.24621640	     22.88829686	     -9.81449551	    -15.62425762	    -44.26510924	     33.66122149	    -25.75767127	      0.00304738	      5.68378746
      1.26000000	     22.77220933	     -1.61356277	      0.19196673	     -0.37520730	      0.89115866	      0.00891639	    -44.31944131	      3.81788022	      1.63707448	    -14.74184322	     -1.70011177	     26.93019355	     51.54829614	     -6.41448095	      3.40883041	     23.06411218	     -9.81448580	    -15.57580349	    -44.39555595	     33.24255659	    -25.74221365	     -0.22916102	      5.73604711
      1.26500000	     22.80733765	     -1.46982732	      0.06906142	     -0.36847635	      0.89236203	      0.00909015	    -43.72371315	      3.44593643	      0.64953083	    -16.52109027	     -3.20929975	     28.16922075	     52.38599139	     -6.97680711	      3.56664247	     23.22963993	     -9.76159467	    -15.48253129	    -44.49713049	     32.74770798	    -25.69243623	     -0.47040888	      5.84153552
      1.27000000	     22.85153902	     -1.35964558	     -0.04945798	     -0.36191215	      0.89358500	      0.00920866	    -43.06696770	      3.07163337	     -0.33634253	    -18.39450679	     -4.78144232	     29.27728605	     53.36329170	     -7.53802400	      3.68916443	     23.35924180	     -9.71117596	    -15.40034167	    -44.53508130	     32.05532016	    -25.67146945	     -0.66361341	      5.96296837
      1.27500000	     22.89512491	     -1.25681980	     -0.18597615	     -0.35534616	      0.89481622	      0.00936684	    -42.39822523	      2.67081272	     -1.25984481	    -20.24546957	     -6.46408521	     30.20209040	     53.92455456	     -8.15579788	      3.78433233	     23.50030685	     -9.54050475	    -15.13785628	    -44.57497215	     31.58065550	    -25.64706845	     -0.85604324	      6.09281563
